<?xml version="1.0" encoding="utf-8"?>
<!-- Generator: Adobe Illustrator 15.0.0, SVG Export Plug-In  -->
<!DOCTYPE svg PUBLIC "-//W3C//DTD SVG 1.1//EN" "http://www.w3.org/Graphics/SVG/1.1/DTD/svg11.dtd" [
	<!ENTITY ns_flows "http://ns.adobe.com/Flows/1.0/">
]>
<svg version="1.1"
	 xmlns="http://www.w3.org/2000/svg" xmlns:xlink="http://www.w3.org/1999/xlink" xmlns:a="http://ns.adobe.com/AdobeSVGViewerExtensions/3.0/"
	 x="0px" y="0px" width="343px" height="116px" viewBox="-8.464 -7.122 343 116" enable-background="new -8.464 -7.122 343 116"
	 xml:space="preserve">
<defs>
</defs>
<path fill="#65666B" d="M38.026,93.926c0.034,0.068,0.069,0.068,0.103,0l1.404-3.127l2.206-4.608
	c0.088-0.141,0.156-0.232,0.209-0.273c0.054-0.046,0.16-0.064,0.314-0.064h1.267c0.229,0,0.345,0.111,0.345,0.338v10.705
	c0,0.243-0.123,0.365-0.369,0.365h-1.344c-0.163,0-0.262-0.025-0.307-0.081c-0.043-0.048-0.063-0.134-0.063-0.257v-6.408
	c0-0.175-0.024-0.237-0.065-0.181c-0.045,0.049-0.085,0.103-0.118,0.152l-1.042,2.19l-1.667,3.284
	c-0.036,0.066-0.079,0.146-0.13,0.23c-0.054,0.088-0.158,0.131-0.313,0.131h-0.939c-0.19,0-0.337-0.109-0.444-0.338l-1.455-2.968
	l-1.148-2.502c-0.034-0.086-0.066-0.145-0.104-0.168c-0.034-0.028-0.052,0.027-0.052,0.168v6.381c0,0.138-0.021,0.236-0.065,0.284
	c-0.043,0.056-0.133,0.081-0.271,0.081h-1.303c-0.263,0-0.391-0.111-0.391-0.338V86.216c0-0.086,0.023-0.17,0.078-0.247
	c0.05-0.08,0.147-0.116,0.285-0.116h1.172c0.208,0,0.338,0.034,0.393,0.105c0.051,0.066,0.102,0.154,0.153,0.258
	c0.35,0.679,0.733,1.449,1.152,2.317c0.418,0.87,0.828,1.729,1.228,2.58c0.244,0.484,0.471,0.979,0.679,1.483
	C37.636,93.101,37.831,93.544,38.026,93.926"/>
<path fill="#65666B" d="M60.06,91.399c0,0.191-0.057,0.345-0.168,0.457c-0.112,0.111-0.229,0.17-0.349,0.17h-6.075
	c-0.137,0-0.248,0.043-0.338,0.131c-0.086,0.086-0.128,0.198-0.128,0.338v0.5c0,0.352,0.042,0.688,0.128,1.01
	c0.09,0.325,0.23,0.605,0.431,0.838c0.2,0.239,0.461,0.427,0.782,0.566c0.32,0.14,0.709,0.213,1.16,0.213
	c0.521,0,0.991-0.125,1.42-0.368c0.425-0.241,0.785-0.562,1.081-0.965c0.136-0.189,0.313-0.215,0.52-0.075l0.912,0.622
	c0.208,0.141,0.276,0.28,0.208,0.418c-0.417,0.758-0.987,1.31-1.718,1.649c-0.732,0.343-1.521,0.513-2.371,0.513
	c-1.407,0-2.532-0.388-3.376-1.158c-0.84-0.771-1.262-1.812-1.262-3.114v-2.97c0-0.656,0.113-1.266,0.338-1.823
	c0.228-0.554,0.542-1.032,0.949-1.433c0.406-0.398,0.887-0.708,1.44-0.924c0.552-0.218,1.167-0.325,1.847-0.325
	c0.69,0,1.32,0.107,1.881,0.325c0.563,0.216,1.044,0.525,1.443,0.924c0.397,0.4,0.704,0.879,0.92,1.433
	c0.217,0.558,0.324,1.167,0.324,1.823V91.399z M55.503,87.467c-0.73,0-1.32,0.233-1.772,0.702c-0.451,0.47-0.678,1.034-0.678,1.695
	v0.181c0,0.071,0.024,0.14,0.077,0.209c0.052,0.068,0.158,0.104,0.315,0.104h4.271c0.171,0,0.26-0.093,0.26-0.284v-0.237
	c0-0.659-0.207-1.219-0.624-1.68C56.935,87.695,56.321,87.467,55.503,87.467"/>
<path fill="#65666B" d="M75.547,85.853c0.19,0,0.322,0.019,0.391,0.064c0.07,0.041,0.106,0.17,0.106,0.372v8.864
	c0,0.138,0.015,0.224,0.05,0.258c0.034,0.035,0.114,0.052,0.232,0.052h0.417c0.141,0,0.233,0.048,0.288,0.145
	c0.051,0.093,0.079,0.204,0.079,0.325v3.751c-0.02,0.227-0.061,0.355-0.134,0.393c-0.067,0.032-0.154,0.049-0.258,0.049h-0.963
	c-0.141,0-0.24-0.017-0.301-0.049c-0.061-0.037-0.101-0.162-0.117-0.391v-2.168c-0.018-0.084-0.033-0.148-0.052-0.194
	c-0.018-0.043-0.103-0.06-0.261-0.06h-6.853c-0.067,0-0.134,0.008-0.192,0.034c-0.06,0.025-0.103,0.109-0.118,0.245v2.143
	c0,0.229-0.041,0.354-0.118,0.391c-0.075,0.032-0.168,0.049-0.272,0.049h-0.966c-0.139,0-0.236-0.017-0.3-0.049
	c-0.06-0.037-0.1-0.166-0.115-0.393v-3.588c0-0.14,0.011-0.256,0.04-0.351c0.023-0.095,0.132-0.159,0.324-0.196l0.446-0.103
	c0.188-0.052,0.355-0.162,0.504-0.323c0.147-0.166,0.271-0.359,0.366-0.586c0.094-0.227,0.178-0.468,0.249-0.73
	c0.068-0.26,0.121-0.501,0.152-0.728c0.104-0.642,0.185-1.152,0.236-1.533c0.052-0.384,0.096-0.781,0.131-1.195
	c0.034-0.42,0.073-0.915,0.118-1.496c0.042-0.58,0.106-1.398,0.195-2.457c0.015-0.207,0.057-0.352,0.129-0.427
	c0.069-0.08,0.198-0.118,0.389-0.118H75.547z M70.987,87.597c-0.189,0-0.3,0.038-0.327,0.116c-0.023,0.079-0.048,0.161-0.062,0.247
	c-0.089,1.125-0.17,2.098-0.25,2.921c-0.076,0.82-0.16,1.561-0.249,2.22c-0.032,0.362-0.108,0.75-0.231,1.159
	c-0.125,0.406-0.259,0.736-0.416,0.996l-0.052,0.1c0,0.073,0.059,0.107,0.18,0.107h4.091c0.106,0,0.186-0.021,0.245-0.064
	c0.063-0.043,0.095-0.143,0.095-0.299v-7.036c0-0.224-0.036-0.361-0.106-0.402c-0.068-0.043-0.188-0.064-0.363-0.064H70.987z"/>
<path fill="#65666B" d="M83.784,86.112c0-0.172,0.112-0.26,0.336-0.26h1.408c0.14,0,0.221,0.025,0.247,0.075
	c0.026,0.054,0.04,0.122,0.04,0.211v7.451c0,0.209,0.052,0.241,0.154,0.104l1.408-2.317l3.205-5.134
	c0.087-0.138,0.17-0.241,0.247-0.302c0.08-0.059,0.211-0.088,0.402-0.088h1.172c0.139,0,0.23,0.025,0.274,0.075
	c0.044,0.054,0.067,0.122,0.067,0.211v10.836c0,0.189-0.097,0.286-0.287,0.286h-1.486c-0.121,0-0.204-0.017-0.248-0.054
	c-0.041-0.032-0.064-0.12-0.064-0.26v-7.526c0-0.087-0.016-0.13-0.039-0.121c-0.025,0.011-0.056,0.034-0.093,0.069l-1.326,2.211
	l-3.335,5.367c-0.104,0.191-0.192,0.292-0.26,0.301c-0.07,0.009-0.148,0.013-0.234,0.013H84.12c-0.139,0-0.228-0.017-0.271-0.054
	c-0.046-0.032-0.065-0.12-0.065-0.26V86.112z"/>
<path fill="#65666B" d="M100.35,97.261c-0.141,0-0.228-0.036-0.263-0.105c-0.035-0.068-0.05-0.157-0.05-0.26V86.112
	c0-0.174,0.12-0.26,0.358-0.26h1.39c0.137,0,0.229,0.011,0.27,0.036c0.042,0.026,0.066,0.102,0.066,0.224v9.013
	c0,0.175,0.03,0.275,0.09,0.299c0.063,0.024,0.162,0.039,0.3,0.039h4.011c0.173,0,0.277-0.021,0.313-0.063
	c0.037-0.045,0.053-0.138,0.053-0.275v-8.937c0-0.104,0.012-0.186,0.039-0.248c0.026-0.059,0.108-0.088,0.247-0.088h1.484
	c0.104,0,0.184,0.011,0.235,0.036c0.053,0.026,0.077,0.102,0.077,0.224v9.041c0,0.136,0.012,0.222,0.039,0.26
	c0.028,0.03,0.108,0.05,0.249,0.05h0.651c0.155,0.034,0.254,0.104,0.285,0.196c0.035,0.095,0.053,0.204,0.053,0.327v3.615
	c0,0.227-0.029,0.377-0.091,0.446c-0.061,0.071-0.143,0.102-0.247,0.102h-1.095c-0.14,0-0.235-0.03-0.286-0.102
	c-0.054-0.069-0.079-0.218-0.079-0.443V97.52c-0.018-0.086-0.034-0.15-0.052-0.196c-0.018-0.04-0.104-0.063-0.261-0.063H100.35z"/>
<path fill="#65666B" d="M116.801,86.112c0-0.172,0.113-0.26,0.342-0.26h1.406c0.137,0,0.221,0.025,0.244,0.075
	c0.028,0.054,0.04,0.122,0.04,0.211v7.451c0,0.209,0.053,0.241,0.159,0.104l1.406-2.317l3.202-5.134
	c0.086-0.138,0.17-0.241,0.246-0.302c0.08-0.059,0.215-0.088,0.405-0.088h1.172c0.139,0,0.229,0.025,0.272,0.075
	c0.044,0.054,0.066,0.122,0.066,0.211v10.836c0,0.189-0.098,0.286-0.286,0.286h-1.483c-0.123,0-0.207-0.017-0.252-0.054
	c-0.042-0.032-0.063-0.12-0.063-0.26v-7.526c0-0.087-0.013-0.13-0.043-0.121c-0.021,0.011-0.053,0.034-0.087,0.069l-1.329,2.211
	l-3.334,5.367c-0.103,0.191-0.191,0.292-0.261,0.301c-0.068,0.009-0.148,0.013-0.234,0.013h-1.248c-0.142,0-0.231-0.017-0.276-0.054
	c-0.043-0.032-0.065-0.12-0.065-0.26V86.112z"/>
<path fill="#65666B" d="M141.729,97.207c-0.079,0.037-0.164,0.057-0.267,0.057h-1.313c-0.257,0-0.389-0.1-0.389-0.289v-4.612
	c0-0.136-0.058-0.209-0.184-0.209h-4.242c-0.124,0-0.185,0.073-0.185,0.209v4.585c0,0.14-0.032,0.228-0.101,0.26
	c-0.07,0.037-0.156,0.057-0.259,0.057h-1.337c-0.258,0-0.388-0.1-0.388-0.289V86.164c0-0.09,0.023-0.161,0.066-0.224
	c0.043-0.056,0.13-0.088,0.27-0.088h1.414c0.14,0,0.228,0.019,0.27,0.064c0.044,0.043,0.064,0.116,0.064,0.22v4.223
	c0,0.032,0.018,0.075,0.052,0.129c0.036,0.05,0.081,0.078,0.133,0.078h4.242c0.126,0,0.184-0.067,0.184-0.207V86.16
	c0-0.207,0.122-0.308,0.362-0.308h1.313c0.273,0,0.411,0.092,0.411,0.284v10.811C141.847,97.087,141.81,97.175,141.729,97.207"/>
<path fill="#65666B" d="M157.514,87.672c0.068,0.091,0.096,0.191,0.075,0.302c-0.015,0.114-0.075,0.206-0.179,0.275l-0.915,0.702
	c-0.224,0.157-0.426,0.104-0.597-0.155c-0.295-0.438-0.655-0.76-1.08-0.976c-0.426-0.22-0.885-0.327-1.369-0.327
	c-0.747,0-1.344,0.23-1.786,0.689c-0.442,0.465-0.662,1.06-0.662,1.791v3.243c0,0.711,0.228,1.292,0.689,1.736
	c0.46,0.445,1.073,0.667,1.838,0.667c0.676,0,1.215-0.146,1.615-0.441c0.398-0.295,0.755-0.646,1.07-1.044
	c0.085-0.105,0.212-0.095,0.388,0.025l0.86,0.627c0.171,0.104,0.267,0.202,0.288,0.299c0.013,0.093-0.014,0.186-0.083,0.273
	c-0.518,0.773-1.141,1.31-1.861,1.609c-0.721,0.297-1.471,0.447-2.253,0.447c-1.406,0-2.53-0.383-3.374-1.144
	c-0.84-0.767-1.262-1.815-1.262-3.152v-2.998c0-0.695,0.116-1.319,0.353-1.873c0.234-0.558,0.553-1.019,0.964-1.394
	c0.405-0.377,0.889-0.661,1.444-0.859c0.556-0.2,1.161-0.304,1.823-0.304C155.188,85.712,156.526,86.371,157.514,87.672"/>
<path fill="#65666B" d="M173.304,97.261h-1.379c-0.244,0-0.367-0.122-0.367-0.365l-0.129-2.423c-0.018-0.33-0.066-0.646-0.143-0.95
	c-0.078-0.304-0.207-0.572-0.391-0.808c-0.184-0.236-0.432-0.417-0.744-0.547c-0.311-0.127-0.703-0.195-1.172-0.195
	c-0.816,0-1.436,0.243-1.861,0.729c-0.426,0.487-0.639,1.07-0.639,1.744v2.552c0,0.177-0.086,0.263-0.26,0.263h-1.592
	c-0.172,0-0.257-0.077-0.257-0.232V86.062c0-0.175,0.078-0.261,0.232-0.261h1.616c0.154,0,0.232,0.077,0.232,0.232v4.092
	c0,0.189,0.045,0.304,0.131,0.336c0.084,0.036,0.172,0.011,0.264-0.078l4.035-4.401c0.086-0.086,0.209-0.129,0.365-0.129h1.926
	c0.191,0,0.289,0.075,0.289,0.232c0,0.036-0.016,0.075-0.039,0.118c-0.031,0.043-0.059,0.082-0.092,0.118l-3.439,3.698
	c-0.104,0.122-0.072,0.208,0.107,0.258c0.17,0.02,0.332,0.037,0.479,0.057c0.146,0.017,0.289,0.043,0.43,0.077
	c0.486,0.118,0.895,0.306,1.223,0.558c0.33,0.252,0.598,0.554,0.799,0.911c0.199,0.355,0.348,0.754,0.439,1.187
	c0.096,0.435,0.162,0.896,0.199,1.38l0.102,2.373C173.669,97.112,173.548,97.261,173.304,97.261"/>
<path fill="#65666B" d="M180.384,86.112c0-0.172,0.113-0.26,0.34-0.26h1.41c0.137,0,0.219,0.025,0.246,0.075
	c0.023,0.054,0.037,0.122,0.037,0.211v7.451c0,0.209,0.053,0.241,0.154,0.104l1.41-2.317l3.203-5.134
	c0.084-0.138,0.17-0.241,0.246-0.302c0.078-0.059,0.215-0.088,0.404-0.088h1.174c0.137,0,0.225,0.025,0.27,0.075
	c0.045,0.054,0.068,0.122,0.068,0.211v10.836c0,0.189-0.096,0.286-0.289,0.286h-1.48c-0.123,0-0.209-0.017-0.254-0.054
	c-0.041-0.032-0.061-0.12-0.061-0.26v-7.526c0-0.087-0.014-0.13-0.043-0.121c-0.025,0.011-0.053,0.034-0.088,0.069l-1.33,2.211
	l-3.332,5.367c-0.104,0.191-0.193,0.292-0.262,0.301s-0.146,0.013-0.232,0.013h-1.252c-0.139,0-0.23-0.017-0.275-0.054
	c-0.041-0.032-0.064-0.12-0.064-0.26V86.112z"/>
<path fill="#65666B" d="M196.647,86.112c0-0.174,0.115-0.26,0.342-0.26h1.406c0.137,0,0.223,0.025,0.246,0.077
	c0.029,0.052,0.041,0.12,0.041,0.209v7.448c0,0.209,0.053,0.246,0.156,0.106l1.408-2.317l3.203-5.134
	c0.086-0.138,0.172-0.239,0.246-0.302c0.078-0.059,0.213-0.088,0.402-0.088h1.176c0.137,0,0.227,0.025,0.271,0.077
	c0.043,0.052,0.068,0.12,0.068,0.209v10.836c0,0.189-0.1,0.286-0.289,0.286h-1.484c-0.123,0-0.205-0.019-0.25-0.054
	c-0.041-0.03-0.063-0.12-0.063-0.26v-7.526c0-0.089-0.014-0.128-0.041-0.121c-0.027,0.013-0.059,0.032-0.088,0.069l-1.336,2.211
	l-3.328,5.367c-0.107,0.191-0.195,0.292-0.264,0.301s-0.145,0.013-0.234,0.013h-1.248c-0.139,0-0.229-0.019-0.273-0.054
	c-0.045-0.03-0.068-0.12-0.068-0.26V86.112z M198.106,81.266c0-0.087,0.018-0.155,0.053-0.207s0.123-0.08,0.26-0.08h0.551
	c0.139,0,0.223,0.028,0.26,0.08s0.068,0.138,0.102,0.261c0.158,0.506,0.371,0.883,0.643,1.144c0.268,0.263,0.654,0.392,1.158,0.392
	c0.932,0,1.537-0.511,1.797-1.535c0.035-0.123,0.064-0.209,0.09-0.261c0.027-0.052,0.119-0.08,0.273-0.08h0.549
	c0.137,0,0.227,0.028,0.258,0.08c0.037,0.052,0.055,0.12,0.055,0.207c-0.018,0.433-0.104,0.846-0.26,1.24
	c-0.158,0.388-0.365,0.729-0.625,1.014c-0.264,0.289-0.572,0.513-0.939,0.677c-0.363,0.163-0.771,0.25-1.225,0.25
	c-0.416,0-0.803-0.087-1.158-0.25c-0.357-0.164-0.67-0.388-0.939-0.677c-0.268-0.284-0.48-0.626-0.635-1.014
	C198.214,82.111,198.124,81.698,198.106,81.266"/>
<path fill="#65666B" d="M222.052,97.261c-0.141,0-0.227-0.036-0.264-0.105c-0.035-0.068-0.049-0.157-0.049-0.26V86.112
	c0-0.174,0.117-0.26,0.357-0.26h1.389c0.137,0,0.229,0.011,0.271,0.036c0.041,0.026,0.064,0.102,0.064,0.224v9.013
	c0,0.175,0.031,0.275,0.09,0.299c0.061,0.024,0.164,0.039,0.301,0.039h4.008c0.176,0,0.279-0.021,0.316-0.063
	c0.033-0.045,0.051-0.138,0.051-0.275v-8.937c0-0.104,0.01-0.186,0.041-0.248c0.023-0.059,0.107-0.088,0.244-0.088h1.488
	c0.104,0,0.182,0.011,0.232,0.036c0.051,0.026,0.08,0.102,0.08,0.224v9.041c0,0.136,0.01,0.222,0.037,0.26
	c0.027,0.03,0.109,0.05,0.25,0.05h0.65c0.156,0.034,0.252,0.104,0.285,0.196c0.035,0.095,0.051,0.204,0.051,0.327v3.615
	c0,0.227-0.029,0.377-0.088,0.446c-0.063,0.071-0.145,0.102-0.248,0.102h-1.092c-0.141,0-0.24-0.03-0.289-0.102
	c-0.055-0.069-0.078-0.218-0.078-0.443V97.52c-0.021-0.086-0.035-0.15-0.053-0.196c-0.018-0.04-0.104-0.063-0.264-0.063H222.052z"/>
<path fill="#65666B" d="M247.325,91.399c0,0.191-0.055,0.345-0.17,0.457c-0.111,0.111-0.23,0.17-0.348,0.17h-6.076
	c-0.137,0-0.25,0.043-0.336,0.131c-0.086,0.086-0.129,0.198-0.129,0.338v0.5c0,0.352,0.043,0.688,0.129,1.01
	c0.086,0.325,0.23,0.605,0.432,0.838c0.197,0.239,0.461,0.427,0.779,0.566c0.322,0.14,0.707,0.213,1.162,0.213
	c0.518,0,0.99-0.125,1.416-0.368c0.43-0.241,0.789-0.562,1.086-0.965c0.135-0.189,0.311-0.215,0.52-0.075l0.912,0.622
	c0.209,0.141,0.273,0.28,0.209,0.418c-0.418,0.758-0.992,1.31-1.721,1.649c-0.73,0.343-1.52,0.513-2.369,0.513
	c-1.41,0-2.535-0.388-3.375-1.158c-0.844-0.771-1.262-1.812-1.262-3.114v-2.97c0-0.656,0.109-1.266,0.336-1.823
	c0.227-0.554,0.541-1.032,0.947-1.433c0.406-0.398,0.887-0.708,1.443-0.924c0.551-0.218,1.168-0.325,1.844-0.325
	c0.693,0,1.32,0.107,1.883,0.325c0.563,0.216,1.041,0.525,1.443,0.924c0.396,0.4,0.703,0.879,0.92,1.433
	c0.215,0.558,0.324,1.167,0.324,1.823V91.399z M242.769,87.467c-0.729,0-1.322,0.233-1.773,0.702
	c-0.451,0.47-0.678,1.034-0.678,1.695v0.181c0,0.071,0.023,0.14,0.078,0.209c0.053,0.068,0.154,0.104,0.316,0.104h4.271
	c0.172,0,0.258-0.093,0.258-0.284v-0.237c0-0.659-0.209-1.219-0.625-1.68C244.198,87.695,243.585,87.467,242.769,87.467"/>
<path fill="#65666B" d="M262.876,97.207c-0.076,0.037-0.164,0.057-0.268,0.057h-1.313c-0.258,0-0.385-0.1-0.385-0.289v-4.612
	c0-0.136-0.061-0.209-0.182-0.209h-4.248c-0.121,0-0.182,0.073-0.182,0.209v4.585c0,0.14-0.031,0.228-0.104,0.26
	c-0.068,0.037-0.154,0.057-0.256,0.057h-1.338c-0.258,0-0.389-0.1-0.389-0.289V86.164c0-0.09,0.025-0.161,0.066-0.224
	c0.041-0.056,0.129-0.088,0.268-0.088h1.418c0.137,0,0.227,0.019,0.268,0.064c0.045,0.043,0.066,0.116,0.066,0.22v4.223
	c0,0.032,0.018,0.075,0.055,0.129c0.031,0.05,0.074,0.078,0.127,0.078h4.248c0.121,0,0.182-0.067,0.182-0.207V86.16
	c0-0.207,0.121-0.308,0.355-0.308h1.318c0.273,0,0.41,0.092,0.41,0.284v10.811C262.995,97.087,262.954,97.175,262.876,97.207"/>
<path fill="#65666B" d="M277.933,87.597h-2.84c-0.064,0-0.117,0.027-0.143,0.075c-0.025,0.056-0.035,0.107-0.035,0.157v9.066
	c0,0.138-0.025,0.236-0.068,0.288c-0.045,0.052-0.135,0.08-0.271,0.08h-1.361c-0.258,0-0.389-0.116-0.389-0.341v-9.094
	c0-0.157-0.066-0.232-0.207-0.232h-2.734c-0.141,0-0.24-0.021-0.301-0.064c-0.063-0.046-0.09-0.139-0.09-0.273V86.19
	c0-0.229,0.131-0.338,0.391-0.338h8.049c0.264,0,0.393,0.103,0.393,0.312v1.095C278.325,87.484,278.196,87.597,277.933,87.597"/>
<path fill="#65666B" d="M293.993,93.066c0,0.609-0.104,1.178-0.313,1.708c-0.209,0.527-0.494,0.992-0.871,1.391
	c-0.369,0.4-0.809,0.713-1.32,0.938c-0.51,0.229-1.068,0.336-1.676,0.336c-0.672,0-1.197-0.081-1.568-0.245
	c-0.373-0.166-0.672-0.351-0.895-0.56c-0.141-0.121-0.246-0.153-0.326-0.089c-0.078,0.059-0.119,0.141-0.119,0.244v4.925
	c0,0.174-0.078,0.261-0.229,0.261h-1.615c-0.158,0-0.238-0.08-0.238-0.235V86.085c0-0.157,0.08-0.232,0.238-0.232h1.43
	c0.172,0,0.26,0.075,0.26,0.232v0.547c0,0.104,0.045,0.152,0.131,0.145c0.09-0.007,0.182-0.065,0.285-0.166
	c0.225-0.194,0.559-0.388,1-0.59c0.439-0.2,0.988-0.3,1.646-0.3c1.244,0,2.256,0.37,3.023,1.107c0.771,0.74,1.156,1.791,1.156,3.165
	V93.066z M291.907,90.038c0-0.729-0.209-1.33-0.637-1.807c-0.426-0.474-1.045-0.715-1.861-0.715c-0.73,0-1.332,0.241-1.797,0.715
	c-0.473,0.477-0.707,1.068-0.707,1.779v3.064c0,0.708,0.234,1.315,0.695,1.817c0.457,0.502,1.061,0.754,1.809,0.754
	c0.768,0,1.371-0.248,1.824-0.741c0.449-0.491,0.674-1.104,0.674-1.83V90.038z"/>
<path fill="#DA292E" d="M155.309,18.819c4.018,0,7.201-0.437,9.068-2.664c1.114-1.437,1.636-3.343,1.636-6.728
	c0-3.303-0.521-5.251-1.636-6.685C162.51,0.555,159.326,0,155.309,0c-3.94,0-7.163,0.555-8.957,2.743
	c-1.151,1.434-1.628,3.382-1.628,6.685c0,3.384,0.477,5.291,1.628,6.728C148.146,18.383,151.368,18.819,155.309,18.819"/>
<path fill="#DA292E" d="M22.387,46.482c-1.125,3.568-1.879,6.939-2.376,10.755h-0.315c-0.499-3.499-1.246-7.187-2.249-10.755
	l-6.253-21.819H0l13.319,43.766H26.45l13.194-43.766H28.638L22.387,46.482z"/>
<path fill="#DA292E" d="M46.739,37.355v17.945c0,7.003,5.063,13.13,15.568,13.13h13.564v-9.065H62.308
	c-3.19,0-5.191-2.316-5.191-4.816v-3.437h16.196v-9.066H57.116v-2.94c0-3.126,1.874-5.316,5.191-5.316h13.564v-9.126H62.308
	C51.241,24.663,46.739,31.04,46.739,37.355"/>
<path fill="#DA292E" d="M123.242,39.421c0.309-8.818-5.627-14.758-14.819-14.758h-19.26v43.77H99.67V53.487h6.504l6.002,14.945
	h12.063l-8.5-17.448C119.237,49.486,123.054,45.923,123.242,39.421 M107.671,44.796H99.67V33.792h8.438
	c3.812,0,4.694,2.813,4.694,5.44C112.861,42.483,110.985,44.796,107.671,44.796"/>
<path fill="#DA292E" d="M213.206,53.799l-10.064-29.136h-14.635v43.768h9.316V48.858c0-3.999-0.436-9.252-0.871-12.876h0.123
	l11.127,32.449h8.572l11.191-32.449h0.121c-0.373,3.624-0.998,8.877-0.998,12.876v19.572h10.064V24.663h-13.939L213.206,53.799z"/>
<path fill="#DA292E" d="M250.22,37.355v17.945c0,7.003,5.064,13.13,15.568,13.13h13.566v-9.065h-13.566
	c-3.188,0-5.193-2.316-5.193-4.816v-3.437h16.195v-9.066h-16.195v-2.94c0-3.126,1.877-5.316,5.193-5.316h13.566v-9.126h-13.566
	C254.718,24.663,250.22,31.04,250.22,37.355"/>
<path fill="#DA292E" d="M310.429,24.663H292.61v43.77h17.818c10.635,0,15.635-6.131,15.635-13.132V37.355
	C326.063,31.041,321.562,24.663,310.429,24.663 M315.685,54.549c0,2.5-2.006,4.815-5.256,4.815h-7.377V33.79h7.377
	c3.438,0,5.256,2.192,5.256,5.314V54.549z"/>
<path fill="#DA292E" d="M155.336,45.302c-2.188,0-4.057-0.252-4.057-0.252l2.119-9.414h3.823l2.14,9.414
	C159.361,45.05,157.523,45.302,155.336,45.302 M180.503,16.225c-8.064,3.503-16.444,5.816-25.194,5.816
	c-8.758,0-17.13-2.313-25.135-5.816v6.812c4.773,3.487,9.73,5.695,14.869,6.905c-0.104,0.321-0.224,0.621-0.303,0.973l-3.003,12.081
	l-1.896,7.653l-4.417,17.78h10.502l3.453-15.275c1.947,0.258,3.922,0.393,5.929,0.393c1.988,0,3.963-0.135,5.918-0.393l3.46,15.275
	h10.564l-4.443-17.771l-1.914-7.666l-3.025-12.078c-0.08-0.352-0.197-0.65-0.297-0.97c5.178-1.211,10.193-3.419,14.932-6.908V16.225
	z"/>
</svg>
